<mxfile host="app.diagrams.net" modified="2024-05-12T18:35:25.556Z" agent="Mozilla/5.0 (Macintosh; Intel Mac OS X 10_15_7) AppleWebKit/537.36 (KHTML, like Gecko) Chrome/124.0.0.0 Safari/537.36" etag="KJJ4gyDHe3upSvYELlTC" version="24.4.0" type="device">
  <diagram name="Página-1" id="lH1SATHlcGgFHMmeh8G9">
    <mxGraphModel dx="1781" dy="488" grid="1" gridSize="10" guides="1" tooltips="1" connect="1" arrows="1" fold="1" page="1" pageScale="1" pageWidth="827" pageHeight="1169" math="0" shadow="0">
      <root>
        <mxCell id="0" />
        <mxCell id="1" parent="0" />
        <mxCell id="GtAqasWbu7CBTUoVJizs-1" value="Venta" style="rounded=1;arcSize=10;whiteSpace=wrap;html=1;align=center;" vertex="1" parent="1">
          <mxGeometry x="50" y="80" width="100" height="40" as="geometry" />
        </mxCell>
        <mxCell id="GtAqasWbu7CBTUoVJizs-2" value="Producto" style="rounded=1;arcSize=10;whiteSpace=wrap;html=1;align=center;" vertex="1" parent="1">
          <mxGeometry x="400" y="80" width="100" height="40" as="geometry" />
        </mxCell>
        <mxCell id="GtAqasWbu7CBTUoVJizs-4" value="Id_Venta" style="ellipse;whiteSpace=wrap;html=1;align=center;fontStyle=4;" vertex="1" parent="1">
          <mxGeometry x="50" y="140" width="100" height="40" as="geometry" />
        </mxCell>
        <mxCell id="GtAqasWbu7CBTUoVJizs-6" value="Id_Producto" style="ellipse;whiteSpace=wrap;html=1;align=center;fontStyle=4;" vertex="1" parent="1">
          <mxGeometry x="400" y="140" width="100" height="40" as="geometry" />
        </mxCell>
        <mxCell id="GtAqasWbu7CBTUoVJizs-7" value="Fecha_hora" style="ellipse;whiteSpace=wrap;html=1;align=center;" vertex="1" parent="1">
          <mxGeometry x="50" y="190" width="100" height="40" as="geometry" />
        </mxCell>
        <mxCell id="GtAqasWbu7CBTUoVJizs-8" value="Total" style="ellipse;whiteSpace=wrap;html=1;align=center;" vertex="1" parent="1">
          <mxGeometry x="50" y="240" width="100" height="40" as="geometry" />
        </mxCell>
        <mxCell id="GtAqasWbu7CBTUoVJizs-9" value="Medio_pago" style="ellipse;whiteSpace=wrap;html=1;align=center;" vertex="1" parent="1">
          <mxGeometry x="50" y="290" width="100" height="40" as="geometry" />
        </mxCell>
        <mxCell id="GtAqasWbu7CBTUoVJizs-10" value="Id_Cliente" style="ellipse;whiteSpace=wrap;html=1;align=center;" vertex="1" parent="1">
          <mxGeometry x="50" y="340" width="100" height="40" as="geometry" />
        </mxCell>
        <mxCell id="GtAqasWbu7CBTUoVJizs-11" value="Nombre" style="ellipse;whiteSpace=wrap;html=1;align=center;" vertex="1" parent="1">
          <mxGeometry x="400" y="190" width="100" height="40" as="geometry" />
        </mxCell>
        <mxCell id="GtAqasWbu7CBTUoVJizs-12" value="Precio" style="ellipse;whiteSpace=wrap;html=1;align=center;" vertex="1" parent="1">
          <mxGeometry x="400" y="290" width="100" height="40" as="geometry" />
        </mxCell>
        <mxCell id="GtAqasWbu7CBTUoVJizs-13" value="Descripción" style="ellipse;whiteSpace=wrap;html=1;align=center;" vertex="1" parent="1">
          <mxGeometry x="400" y="240" width="100" height="40" as="geometry" />
        </mxCell>
        <mxCell id="GtAqasWbu7CBTUoVJizs-17" value="Cliente" style="rounded=1;arcSize=10;whiteSpace=wrap;html=1;align=center;" vertex="1" parent="1">
          <mxGeometry x="-290" y="80" width="100" height="40" as="geometry" />
        </mxCell>
        <mxCell id="GtAqasWbu7CBTUoVJizs-18" value="Id_Cliente" style="ellipse;whiteSpace=wrap;html=1;align=center;fontStyle=4;" vertex="1" parent="1">
          <mxGeometry x="-290" y="140" width="100" height="40" as="geometry" />
        </mxCell>
        <mxCell id="GtAqasWbu7CBTUoVJizs-19" value="Nombre" style="ellipse;whiteSpace=wrap;html=1;align=center;" vertex="1" parent="1">
          <mxGeometry x="-290" y="190" width="100" height="40" as="geometry" />
        </mxCell>
        <mxCell id="GtAqasWbu7CBTUoVJizs-20" value="Apellido" style="ellipse;whiteSpace=wrap;html=1;align=center;" vertex="1" parent="1">
          <mxGeometry x="-290" y="240" width="100" height="40" as="geometry" />
        </mxCell>
        <mxCell id="GtAqasWbu7CBTUoVJizs-21" value="Dirección" style="ellipse;whiteSpace=wrap;html=1;align=center;" vertex="1" parent="1">
          <mxGeometry x="-290" y="290" width="100" height="40" as="geometry" />
        </mxCell>
        <mxCell id="GtAqasWbu7CBTUoVJizs-22" value="Realiza" style="shape=rhombus;perimeter=rhombusPerimeter;whiteSpace=wrap;html=1;align=center;" vertex="1" parent="1">
          <mxGeometry x="-130" y="70" width="120" height="60" as="geometry" />
        </mxCell>
        <mxCell id="GtAqasWbu7CBTUoVJizs-24" value="" style="endArrow=none;html=1;rounded=0;entryX=0;entryY=0.5;entryDx=0;entryDy=0;" edge="1" parent="1" target="GtAqasWbu7CBTUoVJizs-22">
          <mxGeometry relative="1" as="geometry">
            <mxPoint x="-190" y="99.5" as="sourcePoint" />
            <mxPoint x="-150" y="140" as="targetPoint" />
          </mxGeometry>
        </mxCell>
        <mxCell id="GtAqasWbu7CBTUoVJizs-25" value="" style="endArrow=none;html=1;rounded=0;entryX=0;entryY=0.5;entryDx=0;entryDy=0;exitX=1;exitY=0.5;exitDx=0;exitDy=0;" edge="1" parent="1" source="GtAqasWbu7CBTUoVJizs-22" target="GtAqasWbu7CBTUoVJizs-1">
          <mxGeometry relative="1" as="geometry">
            <mxPoint x="-180" y="109.5" as="sourcePoint" />
            <mxPoint x="-120" y="110" as="targetPoint" />
          </mxGeometry>
        </mxCell>
        <mxCell id="GtAqasWbu7CBTUoVJizs-26" value="1" style="text;html=1;align=center;verticalAlign=middle;resizable=0;points=[];autosize=1;strokeColor=none;fillColor=none;" vertex="1" parent="1">
          <mxGeometry x="-195" y="78" width="30" height="30" as="geometry" />
        </mxCell>
        <mxCell id="GtAqasWbu7CBTUoVJizs-27" value="N" style="text;html=1;align=center;verticalAlign=middle;resizable=0;points=[];autosize=1;strokeColor=none;fillColor=none;" vertex="1" parent="1">
          <mxGeometry x="25" y="78" width="30" height="30" as="geometry" />
        </mxCell>
        <mxCell id="GtAqasWbu7CBTUoVJizs-28" value="Incluye" style="shape=rhombus;perimeter=rhombusPerimeter;whiteSpace=wrap;html=1;align=center;" vertex="1" parent="1">
          <mxGeometry x="215" y="70" width="120" height="60" as="geometry" />
        </mxCell>
        <mxCell id="GtAqasWbu7CBTUoVJizs-29" value="" style="endArrow=none;html=1;rounded=0;entryX=0;entryY=0.5;entryDx=0;entryDy=0;exitX=1;exitY=0.5;exitDx=0;exitDy=0;" edge="1" parent="1" target="GtAqasWbu7CBTUoVJizs-28" source="GtAqasWbu7CBTUoVJizs-1">
          <mxGeometry relative="1" as="geometry">
            <mxPoint x="155" y="99.5" as="sourcePoint" />
            <mxPoint x="195" y="140" as="targetPoint" />
          </mxGeometry>
        </mxCell>
        <mxCell id="GtAqasWbu7CBTUoVJizs-30" value="" style="endArrow=none;html=1;rounded=0;entryX=0;entryY=0.5;entryDx=0;entryDy=0;exitX=1;exitY=0.5;exitDx=0;exitDy=0;" edge="1" parent="1" source="GtAqasWbu7CBTUoVJizs-28" target="GtAqasWbu7CBTUoVJizs-2">
          <mxGeometry relative="1" as="geometry">
            <mxPoint x="165" y="109.5" as="sourcePoint" />
            <mxPoint x="395" y="100" as="targetPoint" />
          </mxGeometry>
        </mxCell>
        <mxCell id="GtAqasWbu7CBTUoVJizs-31" value="N&amp;nbsp;" style="text;html=1;align=center;verticalAlign=middle;resizable=0;points=[];autosize=1;strokeColor=none;fillColor=none;" vertex="1" parent="1">
          <mxGeometry x="145" y="78" width="40" height="30" as="geometry" />
        </mxCell>
        <mxCell id="GtAqasWbu7CBTUoVJizs-32" value="M" style="text;html=1;align=center;verticalAlign=middle;resizable=0;points=[];autosize=1;strokeColor=none;fillColor=none;" vertex="1" parent="1">
          <mxGeometry x="370" y="78" width="30" height="30" as="geometry" />
        </mxCell>
        <mxCell id="GtAqasWbu7CBTUoVJizs-37" style="edgeStyle=orthogonalEdgeStyle;rounded=0;orthogonalLoop=1;jettySize=auto;html=1;exitX=0.5;exitY=0;exitDx=0;exitDy=0;entryX=0.5;entryY=1;entryDx=0;entryDy=0;" edge="1" parent="1" source="GtAqasWbu7CBTUoVJizs-33" target="GtAqasWbu7CBTUoVJizs-28">
          <mxGeometry relative="1" as="geometry" />
        </mxCell>
        <mxCell id="GtAqasWbu7CBTUoVJizs-33" value="Detalle Venta" style="rounded=1;arcSize=10;whiteSpace=wrap;html=1;align=center;" vertex="1" parent="1">
          <mxGeometry x="225" y="160" width="100" height="40" as="geometry" />
        </mxCell>
        <mxCell id="GtAqasWbu7CBTUoVJizs-34" value="Id_Venta" style="ellipse;whiteSpace=wrap;html=1;align=center;" vertex="1" parent="1">
          <mxGeometry x="225" y="210" width="100" height="40" as="geometry" />
        </mxCell>
        <mxCell id="GtAqasWbu7CBTUoVJizs-35" value="Id_Producto" style="ellipse;whiteSpace=wrap;html=1;align=center;" vertex="1" parent="1">
          <mxGeometry x="225" y="260" width="100" height="40" as="geometry" />
        </mxCell>
        <mxCell id="GtAqasWbu7CBTUoVJizs-36" value="Cantidad" style="ellipse;whiteSpace=wrap;html=1;align=center;" vertex="1" parent="1">
          <mxGeometry x="225" y="310" width="100" height="40" as="geometry" />
        </mxCell>
      </root>
    </mxGraphModel>
  </diagram>
</mxfile>
